<?xml version="1.0" standalone="no"?><!DOCTYPE svg PUBLIC "-//W3C//DTD SVG 1.1//EN" "http://www.w3.org/Graphics/SVG/1.1/DTD/svg11.dtd"><svg t="1683522127690" class="icon" viewBox="0 0 1024 1024" version="1.1" xmlns="http://www.w3.org/2000/svg" p-id="2519" id="mx_n_1683522127691" xmlns:xlink="http://www.w3.org/1999/xlink" width="200" height="200"><path d="M800 170.666667a138.666667 138.666667 0 0 1 138.453333 130.816L938.666667 309.333333v405.333334a138.666667 138.666667 0 0 1-130.816 138.453333L800 853.333333h-362.709333a138.666667 138.666667 0 0 1-88.96-32.256l-6.613334-5.930666-213.162666-202.666667a138.666667 138.666667 0 0 1-4.906667-196.010667l4.906667-4.949333 213.162666-202.666667a138.666667 138.666667 0 0 1 86.698667-37.888L437.290667 170.666667h362.666666z m-311.637333 187.605333a32 32 0 0 0-44.8 44.8l3.114666 3.541333L552.106667 512l-105.386667 105.386667-3.072 3.584a32 32 0 0 0 44.757333 44.757333l3.584-3.114667L597.333333 557.269333l105.386667 105.386667 3.584 3.072a32 32 0 0 0 44.757333-44.8l-3.114666-3.541333L642.56 512l105.386667-105.386667 3.114666-3.584a32 32 0 0 0-44.8-44.757333l-3.584 3.114667L597.333333 466.730667l-105.344-105.386667-3.584-3.072z" fill="#212121" p-id="2520"></path></svg>